<svg width="32" height="26" viewBox="0 0 32 26" fill="none" xmlns="http://www.w3.org/2000/svg">
<g clip-path="url(#clip0_1710_222)">
<path d="M3.21387 22.0088H5.86889V25.2339C4.86961 25.4062 4.27518 25.4275 3.21387 25.2344V22.0088ZM26.7597 22.0437H29.4147V25.2688C28.4155 25.4412 27.821 25.4624 26.7597 25.2694V22.0437Z" stroke="white" stroke-width="2"/>
<path d="M3.11157 9.22259C3.9257 9.06266 11.436 7.614 16.3681 7.61561C21.2691 7.61721 28.8536 9.16034 29.691 9.33389M3.10053 9.30867L3.1022 9.29568C3.11432 9.2933 3.12862 9.29044 3.14507 9.28722C3.20564 9.27541 3.29519 9.25795 3.41104 9.2358C3.64274 9.19143 3.97963 9.12813 4.40025 9.05211C5.2415 8.90008 6.41752 8.69739 7.75658 8.4947C10.4356 8.08925 13.7635 7.68464 16.3681 7.68548C18.9587 7.68631 22.3038 8.11901 25.0038 8.55227C26.3533 8.76879 27.5405 8.98525 28.3904 9.14762C28.8154 9.22881 29.156 9.29644 29.3903 9.34374C29.5074 9.36743 29.598 9.38602 29.6592 9.39866C29.6791 9.40278 29.6959 9.40628 29.7095 9.40907L29.7143 9.42878L29.7778 9.41872C30.2991 9.33599 30.3706 9.32872 30.6519 9.30029C30.8016 9.28513 31.0109 9.26396 31.3791 9.22217L31.3812 9.22189L31.3833 9.22154C31.4888 9.20282 31.6342 9.17823 31.7461 9.18102C31.8039 9.18249 31.8399 9.19122 31.8571 9.20177C31.858 9.2024 31.8588 9.20289 31.8595 9.20345C31.8615 9.20485 31.8626 9.20589 31.8632 9.20659C31.8636 9.20701 31.8638 9.20736 31.864 9.20757C31.864 9.20778 31.8641 9.20792 31.8641 9.20799C31.8642 9.2082 31.8647 9.20946 31.8647 9.21225C31.8648 9.21526 31.8644 9.22015 31.8625 9.22734L31.8622 9.22832L31.862 9.2293L31.5542 10.5757C31.5493 10.5781 31.5431 10.5808 31.5356 10.5839C31.4982 10.5994 31.4285 10.6226 31.3047 10.6487C31.057 10.701 30.5989 10.7639 29.7636 10.8027L29.697 10.8058V10.8725C29.697 12.8419 29.6637 14.4943 29.6295 16.1861L29.627 16.307C29.5924 18.0241 29.5577 19.79 29.557 21.9748C29.5488 21.9754 29.5397 21.9761 29.5299 21.9768C29.4695 21.9812 29.3803 21.9876 29.2648 21.9957C29.0339 22.012 28.6983 22.0353 28.2793 22.0633C27.4413 22.1193 26.27 22.1939 24.9368 22.2685C22.2701 22.4178 18.957 22.5672 16.3681 22.5676C13.7655 22.568 10.4349 22.4187 7.75413 22.2692C6.41391 22.1944 5.23642 22.1196 4.39401 22.0635C3.97281 22.0355 3.63538 22.0121 3.40327 21.9958C3.28722 21.9876 3.19749 21.9812 3.13678 21.9768L3.10897 21.9748L3.07423 10.8294L3.07401 10.7597H3.00436C2.69346 10.7597 2.42728 10.765 2.19299 10.7696C1.88283 10.7758 1.62855 10.7809 1.40038 10.7711C1.01697 10.7546 0.718631 10.6961 0.375001 10.5292L0.103 9.3552L0.102172 9.35157L0.100973 9.34815C0.0860998 9.30511 0.0767562 9.2736 0.0738671 9.2497C0.07249 9.23831 0.0729937 9.23154 0.0737078 9.22797C0.0740348 9.2263 0.0743611 9.2256 0.074433 9.22539C0.0744379 9.22539 0.0744428 9.22539 0.074447 9.22539C0.0744889 9.22532 0.0745777 9.22525 0.074723 9.22511C0.0749375 9.22497 0.0753183 9.22462 0.0759233 9.2242C0.0771391 9.22336 0.0793399 9.2221 0.0829745 9.22064C0.0904959 9.21756 0.102819 9.21428 0.122077 9.21225C0.16112 9.20827 0.219598 9.21037 0.305024 9.22196L0.308623 9.22245L0.312254 9.22259L3.03714 9.30671L3.10053 9.30867ZM29.6725 9.25871C29.6117 9.24614 29.5261 9.2286 29.4179 9.2068C29.1832 9.15936 28.8421 9.09166 28.4167 9.01033C27.5658 8.84782 26.377 8.63108 25.026 8.41428C22.3248 7.98088 18.9705 7.54658 16.3681 7.54574C13.7525 7.5449 10.4159 7.95091 7.73562 8.35657C6.39501 8.55947 5.21763 8.76237 4.37539 8.91461C3.95426 8.9907 3.6169 9.05414 3.38478 9.09858C3.27045 9.12044 3.18165 9.1377 3.12094 9.14958L4.21902 0.591158L16.2445 0.0698242L27.5428 0.59129L29.6725 9.25871Z" stroke="white" stroke-width="2"/>
<path d="M20.3318 18.0962H12.2969V19.4237H20.3318V18.0962Z" fill="white"/>
<path d="M23.7553 15.5808H8.94312V17.0481H23.7553V15.5808Z" fill="white"/>
<path d="M3.03931 12.751H6.56769C6.62557 12.751 6.67249 12.7979 6.67249 12.8558V14.1833C6.67249 14.2411 6.62557 14.2881 6.56769 14.2881H3.03931V12.751Z" fill="white" stroke="white"/>
<path d="M26.1309 12.8909H29.6593V14.428H26.1309C26.0731 14.428 26.0261 14.381 26.0261 14.3232V12.9957C26.0261 12.9378 26.0731 12.8909 26.1309 12.8909Z" fill="white" stroke="white"/>
</g>
<defs>
<clipPath id="clip0_1710_222">
<rect width="32" height="25.5022" fill="white"/>
</clipPath>
</defs>
</svg>
