<svg width="32" height="32" viewBox="0 0 32 32" fill="none" xmlns="http://www.w3.org/2000/svg">
<path d="M17.4395 0.25H31.4218C31.6031 0.25 31.75 0.39693 31.75 0.578133V31.4219C31.75 31.6031 31.6031 31.75 31.4218 31.75H17.4395C17.2583 31.75 17.1113 31.6031 17.1113 31.4219V0.578133C17.1113 0.396929 17.2583 0.25 17.4395 0.25ZM31.0937 0.906265H17.7676V31.0938H31.0937V0.906265Z" fill="white"/>
<path d="M0.578133 0.25H14.5605C14.7417 0.25 14.8886 0.39693 14.8886 0.578133V31.4219C14.8886 31.6031 14.7417 31.75 14.5605 31.75H0.578133C0.396929 31.75 0.25 31.6031 0.25 31.4219V0.578133C0.25 0.396929 0.39693 0.25 0.578133 0.25ZM14.2323 0.906265H0.906238V31.0938H14.2323V0.906265Z" fill="white"/>
<path d="M5.23902 24.2031H9.89974C10.0809 24.2031 10.2279 24.3501 10.2279 24.5313V31.4219C10.2279 31.6031 10.0809 31.75 9.89974 31.75H5.23902C5.05782 31.75 4.91089 31.6031 4.91089 31.4219V24.5313C4.91089 24.3501 5.05782 24.2031 5.23902 24.2031ZM9.57161 24.8594H5.56716V31.0938H9.57161V24.8594Z" fill="white"/>
<path d="M9.33302 2.38281H11.958C12.1392 2.38281 12.2861 2.52974 12.2861 2.71095V4.89844C12.2861 5.07965 12.1392 5.22658 11.958 5.22658H9.33302C9.15181 5.22658 9.00488 5.07965 9.00488 4.89844V2.71095C9.00488 2.52974 9.15181 2.38281 9.33302 2.38281ZM11.6299 3.03908H9.66115V4.57031H11.6299V3.03908Z" fill="white"/>
<path d="M9.33302 6.75781H11.958C12.1392 6.75781 12.2861 6.90474 12.2861 7.08595V9.27344C12.2861 9.45465 12.1392 9.60158 11.958 9.60158H9.33302C9.15181 9.60158 9.00488 9.45465 9.00488 9.27344V7.08595C9.00488 6.90474 9.15181 6.75781 9.33302 6.75781ZM11.6299 7.41408H9.66115V8.94531H11.6299V7.41408Z" fill="white"/>
<path d="M9.33302 11.1328H11.958C12.1392 11.1328 12.2861 11.2797 12.2861 11.4609V13.6485C12.2861 13.8297 12.1392 13.9766 11.958 13.9766H9.33302C9.15181 13.9766 9.00488 13.8297 9.00488 13.6485V11.4609C9.00488 11.2797 9.15181 11.1328 9.33302 11.1328ZM11.6299 11.7891H9.66115V13.3203H11.6299V11.7891Z" fill="white"/>
<path d="M9.33302 15.5078H11.958C12.1392 15.5078 12.2861 15.6547 12.2861 15.8359V18.0234C12.2861 18.2046 12.1392 18.3516 11.958 18.3516H9.33302C9.15181 18.3516 9.00488 18.2046 9.00488 18.0234V15.8359C9.00488 15.6547 9.15181 15.5078 9.33302 15.5078ZM11.6299 16.1641H9.66115V17.6953H11.6299V16.1641Z" fill="white"/>
<path d="M3.18067 2.38281H5.80566C5.98687 2.38281 6.1338 2.52974 6.1338 2.71095V4.89844C6.1338 5.07965 5.98687 5.22658 5.80566 5.22658H3.18067C2.99947 5.22658 2.85254 5.07965 2.85254 4.89844V2.71095C2.85254 2.52974 2.99947 2.38281 3.18067 2.38281ZM5.47754 3.03908H3.50881V4.57031H5.47754V3.03908Z" fill="white"/>
<path d="M3.18067 6.75781H5.80566C5.98687 6.75781 6.1338 6.90474 6.1338 7.08595V9.27344C6.1338 9.45465 5.98687 9.60158 5.80566 9.60158H3.18067C2.99947 9.60158 2.85254 9.45465 2.85254 9.27344V7.08595C2.85254 6.90474 2.99947 6.75781 3.18067 6.75781ZM5.47754 7.41408H3.50881V8.94531H5.47754V7.41408Z" fill="white"/>
<path d="M3.18067 11.1328H5.80566C5.98687 11.1328 6.1338 11.2797 6.1338 11.4609V13.6485C6.1338 13.8297 5.98687 13.9766 5.80566 13.9766H3.18067C2.99947 13.9766 2.85254 13.8297 2.85254 13.6485V11.4609C2.85254 11.2797 2.99947 11.1328 3.18067 11.1328ZM5.47754 11.7891H3.50881V13.3203H5.47754V11.7891Z" fill="white"/>
<path d="M3.18067 15.5078H5.80566C5.98687 15.5078 6.1338 15.6547 6.1338 15.8359V18.0234C6.1338 18.2046 5.98687 18.3516 5.80566 18.3516H3.18067C2.99947 18.3516 2.85254 18.2046 2.85254 18.0234V15.8359C2.85254 15.6547 2.99947 15.5078 3.18067 15.5078ZM5.47754 16.1641H3.50881V17.6953H5.47754V16.1641Z" fill="white"/>
<path d="M3.18067 19.8828H5.80566C5.98687 19.8828 6.1338 20.0297 6.1338 20.2109V22.3984C6.1338 22.5796 5.98687 22.7266 5.80566 22.7266H3.18067C2.99947 22.7266 2.85254 22.5796 2.85254 22.3984V20.2109C2.85254 20.0297 2.99947 19.8828 3.18067 19.8828ZM5.47754 20.5391H3.50881V22.0703H5.47754V20.5391Z" fill="white"/>
<path d="M9.33302 19.8828H11.958C12.1392 19.8828 12.2861 20.0297 12.2861 20.2109V22.3984C12.2861 22.5796 12.1392 22.7266 11.958 22.7266H9.33302C9.15181 22.7266 9.00488 22.5796 9.00488 22.3984V20.2109C9.00488 20.0297 9.15181 19.8828 9.33302 19.8828ZM11.6299 20.5391H9.66115V22.0703H11.6299V20.5391Z" fill="white"/>
<path d="M22.1004 24.2031H26.7611C26.9423 24.2031 27.0892 24.3501 27.0892 24.5313V31.4219C27.0892 31.6031 26.9423 31.75 26.7611 31.75H22.1004C21.9191 31.75 21.7722 31.6031 21.7722 31.4219V24.5313C21.7722 24.3501 21.9191 24.2031 22.1004 24.2031ZM26.4329 24.8594H22.4285V31.0938H26.4329V24.8594Z" fill="white"/>
<path d="M26.1943 2.38281H28.8193C29.0005 2.38281 29.1475 2.52974 29.1475 2.71095V4.89844C29.1475 5.07965 29.0005 5.22658 28.8193 5.22658H26.1943C26.0131 5.22658 25.8662 5.07965 25.8662 4.89844V2.71095C25.8662 2.52974 26.0131 2.38281 26.1943 2.38281ZM28.4912 3.03908H26.5225V4.57031H28.4912V3.03908Z" fill="white"/>
<path d="M26.1943 6.75781H28.8193C29.0005 6.75781 29.1475 6.90474 29.1475 7.08595V9.27344C29.1475 9.45465 29.0005 9.60158 28.8193 9.60158H26.1943C26.0131 9.60158 25.8662 9.45465 25.8662 9.27344V7.08595C25.8662 6.90474 26.0131 6.75781 26.1943 6.75781ZM28.4912 7.41408H26.5225V8.94531H28.4912V7.41408Z" fill="white"/>
<path d="M26.1943 11.1328H28.8193C29.0005 11.1328 29.1475 11.2797 29.1475 11.4609V13.6485C29.1475 13.8297 29.0005 13.9766 28.8193 13.9766H26.1943C26.0131 13.9766 25.8662 13.8297 25.8662 13.6485V11.4609C25.8662 11.2797 26.0131 11.1328 26.1943 11.1328ZM28.4912 11.7891H26.5225V13.3203H28.4912V11.7891Z" fill="white"/>
<path d="M26.1943 15.5078H28.8193C29.0005 15.5078 29.1475 15.6547 29.1475 15.8359V18.0234C29.1475 18.2046 29.0005 18.3516 28.8193 18.3516H26.1943C26.0131 18.3516 25.8662 18.2046 25.8662 18.0234V15.8359C25.8662 15.6547 26.0131 15.5078 26.1943 15.5078ZM28.4912 16.1641H26.5225V17.6953H28.4912V16.1641Z" fill="white"/>
<path d="M20.042 2.38281H22.667C22.8482 2.38281 22.9951 2.52974 22.9951 2.71095V4.89844C22.9951 5.07965 22.8482 5.22658 22.667 5.22658H20.042C19.8608 5.22658 19.7139 5.07965 19.7139 4.89844V2.71095C19.7139 2.52974 19.8608 2.38281 20.042 2.38281ZM22.3389 3.03908H20.3701V4.57031H22.3389V3.03908Z" fill="white"/>
<path d="M20.042 6.75781H22.667C22.8482 6.75781 22.9951 6.90474 22.9951 7.08595V9.27344C22.9951 9.45465 22.8482 9.60158 22.667 9.60158H20.042C19.8608 9.60158 19.7139 9.45465 19.7139 9.27344V7.08595C19.7139 6.90474 19.8608 6.75781 20.042 6.75781ZM22.3389 7.41408H20.3701V8.94531H22.3389V7.41408Z" fill="white"/>
<path d="M20.042 11.1328H22.667C22.8482 11.1328 22.9951 11.2797 22.9951 11.4609V13.6485C22.9951 13.8297 22.8482 13.9766 22.667 13.9766H20.042C19.8608 13.9766 19.7139 13.8297 19.7139 13.6485V11.4609C19.7139 11.2797 19.8608 11.1328 20.042 11.1328ZM22.3389 11.7891H20.3701V13.3203H22.3389V11.7891Z" fill="white"/>
<path d="M20.042 15.5078H22.667C22.8482 15.5078 22.9951 15.6547 22.9951 15.8359V18.0234C22.9951 18.2046 22.8482 18.3516 22.667 18.3516H20.042C19.8608 18.3516 19.7139 18.2046 19.7139 18.0234V15.8359C19.7139 15.6547 19.8608 15.5078 20.042 15.5078ZM22.3389 16.1641H20.3701V17.6953H22.3389V16.1641Z" fill="white"/>
<path d="M20.042 19.8828H22.667C22.8482 19.8828 22.9951 20.0297 22.9951 20.2109V22.3984C22.9951 22.5796 22.8482 22.7266 22.667 22.7266H20.042C19.8608 22.7266 19.7139 22.5796 19.7139 22.3984V20.2109C19.7139 20.0297 19.8608 19.8828 20.042 19.8828ZM22.3389 20.5391H20.3701V22.0703H22.3389V20.5391Z" fill="white"/>
<path d="M26.1943 19.8828H28.8193C29.0005 19.8828 29.1475 20.0297 29.1475 20.2109V22.3984C29.1475 22.5796 29.0005 22.7266 28.8193 22.7266H26.1943C26.0131 22.7266 25.8662 22.5796 25.8662 22.3984V20.2109C25.8662 20.0297 26.0131 19.8828 26.1943 19.8828ZM28.4912 20.5391H26.5225V22.0703H28.4912V20.5391Z" fill="white"/>
<path fill-rule="evenodd" clip-rule="evenodd" d="M9.00485 15.8359C9.00485 15.6547 9.15178 15.5078 9.33299 15.5078H11.958C12.1392 15.5078 12.2861 15.6547 12.2861 15.8359V18.0234C12.2861 18.2046 12.1392 18.3515 11.958 18.3515H9.33299C9.15178 18.3515 9.00485 18.2046 9.00485 18.0234V15.8359ZM14.2324 31.0937V0.90625H0.90625V31.0937H4.9108V24.5312C4.9108 24.35 5.05773 24.2031 5.23894 24.2031H9.89965C10.0809 24.2031 10.2278 24.35 10.2278 24.5312V31.0937H14.2323H14.2324ZM9.33298 19.8828H11.958C12.1392 19.8828 12.2861 20.0297 12.2861 20.2109V22.3984C12.2861 22.5796 12.1392 22.7266 11.958 22.7266H9.33298C9.15178 22.7266 9.00485 22.5796 9.00485 22.3984V20.2109C9.00485 20.0297 9.15178 19.8828 9.33298 19.8828ZM6.13378 15.8359V18.0234C6.13378 18.2046 5.98685 18.3516 5.80565 18.3516H3.18066C2.99946 18.3516 2.85253 18.2046 2.85253 18.0234V15.8359C2.85253 15.6547 2.99946 15.5078 3.18066 15.5078H5.80565C5.98686 15.5078 6.13378 15.6547 6.13378 15.8359ZM3.18066 19.8828H5.80565C5.98685 19.8828 6.13378 20.0297 6.13378 20.2109V22.3984C6.13378 22.5796 5.98685 22.7266 5.80565 22.7266H3.18066C2.99945 22.7266 2.85252 22.5796 2.85252 22.3984V20.2109C2.85252 20.0297 2.99945 19.8828 3.18066 19.8828ZM6.13378 13.6484C6.13378 13.8296 5.98685 13.9766 5.80565 13.9766H3.18066C2.99946 13.9766 2.85253 13.8296 2.85253 13.6484V11.4609C2.85253 11.2797 2.99946 11.1328 3.18066 11.1328H5.80565C5.98686 11.1328 6.13378 11.2797 6.13378 11.4609V13.6484ZM5.80565 9.60155H3.18066C2.99946 9.60155 2.85253 9.45462 2.85253 9.27342V7.08592C2.85253 6.90471 2.99946 6.75779 3.18066 6.75779H5.80565C5.98686 6.75779 6.13378 6.90471 6.13378 7.08592V9.27342C6.13378 9.45462 5.98685 9.60155 5.80565 9.60155ZM5.80565 5.22655H3.18066C2.99946 5.22655 2.85253 5.07962 2.85253 4.89842V2.71092C2.85253 2.52972 2.99946 2.38279 3.18066 2.38279H5.80565C5.98686 2.38279 6.13378 2.52972 6.13378 2.71092V4.89842C6.13378 5.07962 5.98685 5.22655 5.80565 5.22655ZM9.00485 13.6484V11.4609C9.00485 11.2797 9.15178 11.1328 9.33298 11.1328H11.958C12.1392 11.1328 12.2861 11.2797 12.2861 11.4609V13.6484C12.2861 13.8296 12.1392 13.9766 11.958 13.9766H9.33298C9.15178 13.9766 9.00485 13.8296 9.00485 13.6484ZM9.33298 9.60155C9.15178 9.60155 9.00485 9.45462 9.00485 9.27342V7.08592C9.00485 6.90471 9.15178 6.75779 9.33298 6.75779H11.958C12.1392 6.75779 12.2861 6.90471 12.2861 7.08592V9.27342C12.2861 9.45462 12.1392 9.60155 11.958 9.60155H9.33298ZM11.958 5.22655H9.33298C9.15178 5.22655 9.00485 5.07962 9.00485 4.89842V2.71092C9.00485 2.52972 9.15178 2.38279 9.33298 2.38279H11.958C12.1392 2.38279 12.2861 2.52972 12.2861 2.71092V4.89842C12.2861 5.07962 12.1392 5.22655 11.958 5.22655Z" stroke="white" stroke-width="0.00694488" stroke-linecap="round" stroke-linejoin="round"/>
<path fill-rule="evenodd" clip-rule="evenodd" d="M22.9951 15.836V18.0235C22.9951 18.2047 22.8482 18.3516 22.667 18.3516H20.042C19.8608 18.3516 19.7139 18.2047 19.7139 18.0235V15.836C19.7139 15.6548 19.8608 15.5078 20.042 15.5078H22.667C22.8482 15.5078 22.9951 15.6548 22.9951 15.836ZM17.7676 0.90625V31.0937H21.7722V24.5312C21.7722 24.35 21.9191 24.2031 22.1003 24.2031H26.761C26.9422 24.2031 27.0891 24.35 27.0891 24.5312V31.0937H31.0937V0.90625H17.7676H17.7676ZM25.8662 18.0234V15.8359C25.8662 15.6547 26.0131 15.5078 26.1943 15.5078H28.8193C29.0005 15.5078 29.1474 15.6547 29.1474 15.8359V18.0234C29.1474 18.2046 29.0005 18.3516 28.8193 18.3516H26.1943C26.0131 18.3516 25.8662 18.2046 25.8662 18.0234ZM26.1943 19.8828H28.8193C29.0005 19.8828 29.1474 20.0297 29.1474 20.2109V22.3984C29.1474 22.5796 29.0005 22.7266 28.8193 22.7266H26.1943C26.0131 22.7266 25.8662 22.5796 25.8662 22.3984V20.2109C25.8662 20.0297 26.0131 19.8828 26.1943 19.8828ZM20.042 19.8828H22.667C22.8482 19.8828 22.9951 20.0297 22.9951 20.2109V22.3984C22.9951 22.5796 22.8482 22.7266 22.667 22.7266H20.042C19.8608 22.7266 19.7139 22.5796 19.7139 22.3984V20.2109C19.7139 20.0297 19.8608 19.8828 20.042 19.8828ZM22.9951 13.6484C22.9951 13.8296 22.8482 13.9766 22.667 13.9766H20.042C19.8608 13.9766 19.7139 13.8296 19.7139 13.6484V11.4609C19.7139 11.2797 19.8608 11.1328 20.042 11.1328H22.667C22.8482 11.1328 22.9951 11.2797 22.9951 11.4609V13.6484ZM22.667 9.60155H20.042C19.8608 9.60155 19.7139 9.45462 19.7139 9.27342V7.08592C19.7139 6.90471 19.8608 6.75779 20.042 6.75779H22.667C22.8482 6.75779 22.9951 6.90471 22.9951 7.08592V9.27342C22.9951 9.45462 22.8482 9.60155 22.667 9.60155ZM22.667 5.22655H20.042C19.8608 5.22655 19.7139 5.07962 19.7139 4.89842V2.71092C19.7139 2.52972 19.8608 2.38279 20.042 2.38279H22.667C22.8482 2.38279 22.9951 2.52972 22.9951 2.71092V4.89842C22.9951 5.07962 22.8482 5.22655 22.667 5.22655ZM26.1943 13.9765C26.0131 13.9765 25.8662 13.8296 25.8662 13.6484V11.4609C25.8662 11.2797 26.0131 11.1328 26.1943 11.1328H28.8193C29.0005 11.1328 29.1474 11.2797 29.1474 11.4609V13.6484C29.1474 13.8296 29.0005 13.9765 28.8193 13.9765H26.1943ZM28.8193 9.60153H26.1943C26.0131 9.60153 25.8662 9.4546 25.8662 9.27339V7.08589C25.8662 6.90469 26.0131 6.75776 26.1943 6.75776H28.8193C29.0005 6.75776 29.1474 6.90469 29.1474 7.08589V9.27339C29.1474 9.4546 29.0005 9.60153 28.8193 9.60153ZM28.8193 5.22653H26.1943C26.0131 5.22653 25.8662 5.0796 25.8662 4.89839V2.7109C25.8662 2.52969 26.0131 2.38276 26.1943 2.38276H28.8193C29.0005 2.38276 29.1474 2.52969 29.1474 2.7109V4.89839C29.1474 5.0796 29.0005 5.22653 28.8193 5.22653Z" stroke="white" stroke-width="0.00694488" stroke-linecap="round" stroke-linejoin="round"/>
<path fill-rule="evenodd" clip-rule="evenodd" d="M9.57158 31.0937V24.8594H5.56714V31.0937H9.57158Z" fill="white" stroke="white" stroke-width="0.00694488" stroke-linecap="round" stroke-linejoin="round"/>
<path fill-rule="evenodd" clip-rule="evenodd" d="M3.50879 4.57026H5.47748V3.03906H3.50879V4.57026Z" fill="white" stroke="white" stroke-width="0.00694488" stroke-linecap="round" stroke-linejoin="round"/>
<path fill-rule="evenodd" clip-rule="evenodd" d="M9.66113 3.03906V4.57026H11.6299V3.03906H9.66113Z" fill="white" stroke="white" stroke-width="0.00694488" stroke-linecap="round" stroke-linejoin="round"/>
<path fill-rule="evenodd" clip-rule="evenodd" d="M5.47748 8.94526V7.41406H3.50879V8.94526H5.47748Z" fill="white" stroke="white" stroke-width="0.00694488" stroke-linecap="round" stroke-linejoin="round"/>
<path fill-rule="evenodd" clip-rule="evenodd" d="M9.66113 7.41406V8.94526H11.6299V7.41406H9.66113Z" fill="white" stroke="white" stroke-width="0.00694488" stroke-linecap="round" stroke-linejoin="round"/>
<path fill-rule="evenodd" clip-rule="evenodd" d="M11.6299 11.7891H9.66113V13.3203H11.6299V11.7891Z" fill="white" stroke="white" stroke-width="0.00694488" stroke-linecap="round" stroke-linejoin="round"/>
<path fill-rule="evenodd" clip-rule="evenodd" d="M5.47748 13.3203V11.7891H3.50879V13.3203H5.47748Z" fill="white" stroke="white" stroke-width="0.00694488" stroke-linecap="round" stroke-linejoin="round"/>
<path fill-rule="evenodd" clip-rule="evenodd" d="M5.47748 16.1641H3.50879V17.6953H5.47748V16.1641Z" fill="white" stroke="white" stroke-width="0.00694488" stroke-linecap="round" stroke-linejoin="round"/>
<path fill-rule="evenodd" clip-rule="evenodd" d="M9.66113 16.1641V17.6953H11.6299V16.1641H9.66113Z" fill="white" stroke="white" stroke-width="0.00694488" stroke-linecap="round" stroke-linejoin="round"/>
<path fill-rule="evenodd" clip-rule="evenodd" d="M5.47748 22.0703V20.5391H3.50879V22.0703H5.47748Z" fill="white" stroke="white" stroke-width="0.00694488" stroke-linecap="round" stroke-linejoin="round"/>
<path fill-rule="evenodd" clip-rule="evenodd" d="M9.66113 20.5391V22.0703H11.6299V20.5391H9.66113Z" fill="white" stroke="white" stroke-width="0.00694488" stroke-linecap="round" stroke-linejoin="round"/>
<path fill-rule="evenodd" clip-rule="evenodd" d="M22.4285 24.8594V31.0937H26.4329V24.8594H22.4285Z" fill="white" stroke="white" stroke-width="0.00694488" stroke-linecap="round" stroke-linejoin="round"/>
<path fill-rule="evenodd" clip-rule="evenodd" d="M20.3701 20.5391V22.0703H22.3388V20.5391H20.3701Z" fill="white" stroke="white" stroke-width="0.00694488" stroke-linecap="round" stroke-linejoin="round"/>
<path fill-rule="evenodd" clip-rule="evenodd" d="M26.5225 20.5391V22.0703H28.4912V20.5391H26.5225Z" fill="white" stroke="white" stroke-width="0.00694488" stroke-linecap="round" stroke-linejoin="round"/>
<path fill-rule="evenodd" clip-rule="evenodd" d="M26.5225 17.6953H28.4912V16.1641H26.5225V17.6953Z" fill="white" stroke="white" stroke-width="0.00694488" stroke-linecap="round" stroke-linejoin="round"/>
<path fill-rule="evenodd" clip-rule="evenodd" d="M22.3388 17.6953V16.1641H20.3701V17.6953H22.3388Z" fill="white" stroke="white" stroke-width="0.00694488" stroke-linecap="round" stroke-linejoin="round"/>
<path fill-rule="evenodd" clip-rule="evenodd" d="M20.3701 13.3203H22.3388V11.7891H20.3701V13.3203Z" fill="white" stroke="white" stroke-width="0.00694488" stroke-linecap="round" stroke-linejoin="round"/>
<path fill-rule="evenodd" clip-rule="evenodd" d="M26.5225 11.7891V13.3203H28.4912V11.7891H26.5225Z" fill="white" stroke="white" stroke-width="0.00694488" stroke-linecap="round" stroke-linejoin="round"/>
<path fill-rule="evenodd" clip-rule="evenodd" d="M20.3701 8.94526H22.3388V7.41406H20.3701V8.94526Z" fill="white" stroke="white" stroke-width="0.00694488" stroke-linecap="round" stroke-linejoin="round"/>
<path fill-rule="evenodd" clip-rule="evenodd" d="M26.5225 7.41406V8.94526H28.4912V7.41406H26.5225Z" fill="white" stroke="white" stroke-width="0.00694488" stroke-linecap="round" stroke-linejoin="round"/>
<path fill-rule="evenodd" clip-rule="evenodd" d="M22.3388 4.57026V3.03906H20.3701V4.57026H22.3388Z" fill="white" stroke="white" stroke-width="0.00694488" stroke-linecap="round" stroke-linejoin="round"/>
<path fill-rule="evenodd" clip-rule="evenodd" d="M26.5225 3.03906V4.57026H28.4912V3.03906H26.5225Z" fill="white" stroke="white" stroke-width="0.00694488" stroke-linecap="round" stroke-linejoin="round"/>
</svg>
