<svg width="18" height="18" viewBox="0 0 18 18" fill="none" xmlns="http://www.w3.org/2000/svg">
<path fill-rule="evenodd" clip-rule="evenodd" d="M10.6 2C7.61767 2 5.20001 4.41766 5.20001 7.4C5.20001 8.9112 5.81945 10.2759 6.82084 11.2572C7.79581 12.2126 9.12831 12.8 10.6 12.8C13.5823 12.8 16 10.3823 16 7.4C16 4.41766 13.5823 2 10.6 2ZM3.20001 7.4C3.20001 3.31309 6.5131 0 10.6 0C14.6869 0 18 3.31309 18 7.4C18 11.4869 14.6869 14.8 10.6 14.8C8.93823 14.8 7.40324 14.2513 6.16818 13.3266L1.70065 17.7135L0.299362 16.2865L4.7429 11.9231C3.77622 10.6728 3.20001 9.10307 3.20001 7.4Z" fill="white"/>
</svg>
